<svg width="932" height="1000" xmlns="http://www.w3.org/2000/svg">
  <g fill="none">
    <path fill="#DD0031" d="M466 0L.5 166l71 615.5L466 1000l394.5-218.5 71-615.5z"/>
    <path fill="#C3002F" d="M466 0v111-.5V1000l394.5-218.5 71-615.5z"/>
    <path d="M590.38347 445.108127c9.104635-3.040844 16.002086-4.975927 22.899537-8.016772 16.553883-7.18745 20.140558-21.562352 8.55284-35.384372-20.968252-25.432518-31.176479-55.011642-30.900581-87.908051.275898-42.295383 27.865702-70.2158649 70.629899-72.7038286 40.557013-2.4879637 68.974512 21.2859117 73.664779 63.5812946 3.586674 33.44929-2.207185 65.239937-25.382621 91.778217-2.207184 2.487964-3.862572 5.252368-5.517961 8.016772-9.380533 15.480663-6.345655 25.156077 10.208228 33.172849 13.243106 6.35813 26.762111 12.439819 39.177523 20.18015 20.968251 12.9927 32.555969 32.067088 32.280071 57.223166-.275898 39.530979-.827694 79.061958-1.655388 118.592936-.827694 34.278612-15.726189 62.199093-40.557013 84.867207C701.84628 756.932912 649.425651 773.242897 594.52194 789c0-12.163378.551796-22.115233 0-32.067088-2.483082-40.08386-30.072887-59.434688-62.904754-72.703828-30.348785-12.163378-32.831868-17.968627-13.519004-45.059787 23.175435-32.343529 30.348785-67.727901 19.588761-105.876678-9.656432-34.278611-40.832911-54.735202-75.596065-51.141476-41.936503 4.423046-70.629899 30.684885-73.112982 68.004341-2.207184 35.660813 5.793859 68.280782 29.521091 96.477704 12.139514 14.098461 9.93233 24.603196-6.069757 33.44929-7.173349 4.146606-14.898494 7.18745-22.62364 10.504735-33.935459 14.098461-52.420628 39.530979-50.76524 77.679756.275898 5.805249 0 11.886938 0 20.18015-14.0708-4.146606-26.76211-7.187451-39.177523-11.334057-38.625726-12.439818-75.8719621-27.920481-107.0484412-55.011642-32.0041733-27.09116-46.3508717-61.922652-45.7990756-103.388714.27589804-34.555051 1.65538827-69.110103 1.65538827-103.665154 0-28.749803 12.69131013-49.206394 37.52213423-62.475533 10.2082277-5.252368 20.4164554-10.228296 30.9005811-15.204223 19.3128632-8.846093 22.6236397-21.285912 7.7251453-37.595896-16.8297808-18.797948-25.1067222-40.636741-27.5898046-64.963497-1.1035922-11.334057-.8276941-23.220995 1.1035922-34.278611 6.345655-38.7016577 30.9005811-59.9875695 68.6986133-60.2640099 37.522134-.2764404 66.491429 23.4974351 72.837084 60.5404499 5.517961 32.896409-.551796 63.028414-21.795946 89.566694-2.75898 3.593725-5.51796 7.187451-8.001043 11.334057-10.484126 17.415746-6.345655 29.579124 12.69131 36.766575 6.069757 2.211523 12.139514 4.146606 17.933373 6.358129.827694-.829321 1.931287-1.382202 1.931287-1.935083 1.103592-40.08386 26.76211-60.54045 59.869875-74.915352 35.039052-15.204222 36.694441-21.285911 14.070801-51.417916-22.347742-29.579124-27.313907-63.3048545-18.761067-98.4127868 8.552839-35.9372536 36.142644-54.18232078 74.216574-51.97079749 35.31495 2.2115233 61.249366 25.70895829 66.767327 60.54045019 5.517961 33.4492899-3.586675 62.7519731-22.62364 89.8431341-21.520047 30.408445-18.761067 39.530979 15.450291 53.62944 2.207184.829321 4.414369 1.658642 6.345655 2.487963 30.072887 14.098462 54.351915 32.89641 52.420629 72.427388z" fill="#FFF"/>
  </g>
</svg>
